<mxfile host="65bd71144e" pages="2">
    <diagram id="gVLImfBw_cWuZtZBtJHa" name="Page-1">
        <mxGraphModel dx="631" dy="580" grid="1" gridSize="10" guides="1" tooltips="1" connect="1" arrows="1" fold="1" page="1" pageScale="1" pageWidth="827" pageHeight="1169" math="0" shadow="0">
            <root>
                <mxCell id="0"/>
                <mxCell id="1" parent="0"/>
                <mxCell id="P4GKMGaDlnLn8EtyDAif-1" value="Addresses" style="shape=table;html=1;whiteSpace=wrap;startSize=30;container=1;collapsible=0;childLayout=tableLayout;fontStyle=1;align=center;" parent="1" vertex="1">
                    <mxGeometry x="10" y="30" width="740" height="146" as="geometry"/>
                </mxCell>
                <mxCell id="P4GKMGaDlnLn8EtyDAif-2" value="" style="shape=partialRectangle;html=1;whiteSpace=wrap;collapsible=0;dropTarget=0;pointerEvents=0;fillColor=none;top=0;left=0;bottom=0;right=0;points=[[0,0.5],[1,0.5]];portConstraint=eastwest;" parent="P4GKMGaDlnLn8EtyDAif-1" vertex="1">
                    <mxGeometry y="30" width="740" height="40" as="geometry"/>
                </mxCell>
                <mxCell id="P4GKMGaDlnLn8EtyDAif-28" value="address_id" style="shape=partialRectangle;html=1;whiteSpace=wrap;connectable=0;fillColor=none;top=0;left=0;bottom=0;right=0;overflow=hidden;" parent="P4GKMGaDlnLn8EtyDAif-2" vertex="1">
                    <mxGeometry width="123" height="40" as="geometry"/>
                </mxCell>
                <mxCell id="P4GKMGaDlnLn8EtyDAif-3" value="street" style="shape=partialRectangle;html=1;whiteSpace=wrap;connectable=0;fillColor=none;top=0;left=0;bottom=0;right=0;overflow=hidden;" parent="P4GKMGaDlnLn8EtyDAif-2" vertex="1">
                    <mxGeometry x="123" width="124" height="40" as="geometry"/>
                </mxCell>
                <mxCell id="P4GKMGaDlnLn8EtyDAif-4" value="house_number" style="shape=partialRectangle;html=1;whiteSpace=wrap;connectable=0;fillColor=none;top=0;left=0;bottom=0;right=0;overflow=hidden;" parent="P4GKMGaDlnLn8EtyDAif-2" vertex="1">
                    <mxGeometry x="247" width="124" height="40" as="geometry"/>
                </mxCell>
                <mxCell id="P4GKMGaDlnLn8EtyDAif-5" value="city" style="shape=partialRectangle;html=1;whiteSpace=wrap;connectable=0;fillColor=none;top=0;left=0;bottom=0;right=0;overflow=hidden;" parent="P4GKMGaDlnLn8EtyDAif-2" vertex="1">
                    <mxGeometry x="371" width="122" height="40" as="geometry"/>
                </mxCell>
                <mxCell id="P4GKMGaDlnLn8EtyDAif-34" value="country" style="shape=partialRectangle;html=1;whiteSpace=wrap;connectable=0;fillColor=none;top=0;left=0;bottom=0;right=0;overflow=hidden;" parent="P4GKMGaDlnLn8EtyDAif-2" vertex="1">
                    <mxGeometry x="493" width="124" height="40" as="geometry"/>
                </mxCell>
                <mxCell id="P4GKMGaDlnLn8EtyDAif-36" value="zipcode" style="shape=partialRectangle;html=1;whiteSpace=wrap;connectable=0;fillColor=none;top=0;left=0;bottom=0;right=0;overflow=hidden;" parent="P4GKMGaDlnLn8EtyDAif-2" vertex="1">
                    <mxGeometry x="617" width="123" height="40" as="geometry"/>
                </mxCell>
                <mxCell id="P4GKMGaDlnLn8EtyDAif-6" value="" style="shape=partialRectangle;html=1;whiteSpace=wrap;collapsible=0;dropTarget=0;pointerEvents=0;fillColor=none;top=0;left=0;bottom=0;right=0;points=[[0,0.5],[1,0.5]];portConstraint=eastwest;" parent="P4GKMGaDlnLn8EtyDAif-1" vertex="1">
                    <mxGeometry y="70" width="740" height="76" as="geometry"/>
                </mxCell>
                <mxCell id="P4GKMGaDlnLn8EtyDAif-29" value="1&lt;br&gt;2&lt;br&gt;3&lt;br&gt;4" style="shape=partialRectangle;html=1;whiteSpace=wrap;connectable=0;fillColor=none;top=0;left=0;bottom=0;right=0;overflow=hidden;" parent="P4GKMGaDlnLn8EtyDAif-6" vertex="1">
                    <mxGeometry width="123" height="76" as="geometry"/>
                </mxCell>
                <mxCell id="P4GKMGaDlnLn8EtyDAif-7" value="Coblitzallee&lt;br&gt;Hans-Thoma-Straße&lt;br&gt;Mainzer Landstraße&lt;br&gt;Tantau Ave" style="shape=partialRectangle;html=1;whiteSpace=wrap;connectable=0;fillColor=none;top=0;left=0;bottom=0;right=0;overflow=hidden;" parent="P4GKMGaDlnLn8EtyDAif-6" vertex="1">
                    <mxGeometry x="123" width="124" height="76" as="geometry"/>
                </mxCell>
                <mxCell id="P4GKMGaDlnLn8EtyDAif-8" value="1&lt;br&gt;2&lt;br&gt;1&lt;br&gt;2" style="shape=partialRectangle;html=1;whiteSpace=wrap;connectable=0;fillColor=none;top=0;left=0;bottom=0;right=0;overflow=hidden;" parent="P4GKMGaDlnLn8EtyDAif-6" vertex="1">
                    <mxGeometry x="247" width="124" height="76" as="geometry"/>
                </mxCell>
                <mxCell id="P4GKMGaDlnLn8EtyDAif-9" value="Mannheim&lt;br&gt;Mannheim&lt;br&gt;Frankfurt&lt;br&gt;Cupertino" style="shape=partialRectangle;html=1;whiteSpace=wrap;connectable=0;fillColor=none;top=0;left=0;bottom=0;right=0;overflow=hidden;" parent="P4GKMGaDlnLn8EtyDAif-6" vertex="1">
                    <mxGeometry x="371" width="122" height="76" as="geometry"/>
                </mxCell>
                <mxCell id="P4GKMGaDlnLn8EtyDAif-35" value="Germany&lt;br&gt;Germany&lt;br&gt;Germany&lt;br&gt;USA" style="shape=partialRectangle;html=1;whiteSpace=wrap;connectable=0;fillColor=none;top=0;left=0;bottom=0;right=0;overflow=hidden;" parent="P4GKMGaDlnLn8EtyDAif-6" vertex="1">
                    <mxGeometry x="493" width="124" height="76" as="geometry"/>
                </mxCell>
                <mxCell id="P4GKMGaDlnLn8EtyDAif-37" value="68163&lt;br&gt;68163&lt;br&gt;67655&lt;br&gt;&lt;span class=&quot;LrzXr&quot;&gt;95014&lt;/span&gt;" style="shape=partialRectangle;html=1;whiteSpace=wrap;connectable=0;fillColor=none;top=0;left=0;bottom=0;right=0;overflow=hidden;" parent="P4GKMGaDlnLn8EtyDAif-6" vertex="1">
                    <mxGeometry x="617" width="123" height="76" as="geometry"/>
                </mxCell>
                <mxCell id="P4GKMGaDlnLn8EtyDAif-38" value="Employee" style="shape=table;html=1;whiteSpace=wrap;startSize=30;container=1;collapsible=0;childLayout=tableLayout;fontStyle=1;align=center;" parent="1" vertex="1">
                    <mxGeometry x="13" y="200" width="814" height="130" as="geometry"/>
                </mxCell>
                <mxCell id="P4GKMGaDlnLn8EtyDAif-39" value="" style="shape=partialRectangle;html=1;whiteSpace=wrap;collapsible=0;dropTarget=0;pointerEvents=0;fillColor=none;top=0;left=0;bottom=0;right=0;points=[[0,0.5],[1,0.5]];portConstraint=eastwest;" parent="P4GKMGaDlnLn8EtyDAif-38" vertex="1">
                    <mxGeometry y="30" width="814" height="40" as="geometry"/>
                </mxCell>
                <mxCell id="P4GKMGaDlnLn8EtyDAif-40" value="employee_id" style="shape=partialRectangle;html=1;whiteSpace=wrap;connectable=0;fillColor=none;top=0;left=0;bottom=0;right=0;overflow=hidden;" parent="P4GKMGaDlnLn8EtyDAif-39" vertex="1">
                    <mxGeometry width="102" height="40" as="geometry"/>
                </mxCell>
                <mxCell id="P4GKMGaDlnLn8EtyDAif-41" value="first_name" style="shape=partialRectangle;html=1;whiteSpace=wrap;connectable=0;fillColor=none;top=0;left=0;bottom=0;right=0;overflow=hidden;" parent="P4GKMGaDlnLn8EtyDAif-39" vertex="1">
                    <mxGeometry x="102" width="101" height="40" as="geometry"/>
                </mxCell>
                <mxCell id="P4GKMGaDlnLn8EtyDAif-42" value="last_name" style="shape=partialRectangle;html=1;whiteSpace=wrap;connectable=0;fillColor=none;top=0;left=0;bottom=0;right=0;overflow=hidden;" parent="P4GKMGaDlnLn8EtyDAif-39" vertex="1">
                    <mxGeometry x="203" width="102" height="40" as="geometry"/>
                </mxCell>
                <mxCell id="P4GKMGaDlnLn8EtyDAif-51" value="date_of_birth" style="shape=partialRectangle;html=1;whiteSpace=wrap;connectable=0;fillColor=none;top=0;left=0;bottom=0;right=0;overflow=hidden;" parent="P4GKMGaDlnLn8EtyDAif-39" vertex="1">
                    <mxGeometry x="305" width="102" height="40" as="geometry"/>
                </mxCell>
                <mxCell id="P4GKMGaDlnLn8EtyDAif-53" value="salary" style="shape=partialRectangle;html=1;whiteSpace=wrap;connectable=0;fillColor=none;top=0;left=0;bottom=0;right=0;overflow=hidden;" parent="P4GKMGaDlnLn8EtyDAif-39" vertex="1">
                    <mxGeometry x="407" width="101" height="40" as="geometry"/>
                </mxCell>
                <mxCell id="P4GKMGaDlnLn8EtyDAif-55" value="commission" style="shape=partialRectangle;html=1;whiteSpace=wrap;connectable=0;fillColor=none;top=0;left=0;bottom=0;right=0;overflow=hidden;" parent="P4GKMGaDlnLn8EtyDAif-39" vertex="1">
                    <mxGeometry x="508" width="102" height="40" as="geometry"/>
                </mxCell>
                <mxCell id="P4GKMGaDlnLn8EtyDAif-59" value="branch_id" style="shape=partialRectangle;html=1;whiteSpace=wrap;connectable=0;fillColor=none;top=0;left=0;bottom=0;right=0;overflow=hidden;" parent="P4GKMGaDlnLn8EtyDAif-39" vertex="1">
                    <mxGeometry x="610" width="102" height="40" as="geometry"/>
                </mxCell>
                <mxCell id="P4GKMGaDlnLn8EtyDAif-61" value="address_id" style="shape=partialRectangle;html=1;whiteSpace=wrap;connectable=0;fillColor=none;top=0;left=0;bottom=0;right=0;overflow=hidden;" parent="P4GKMGaDlnLn8EtyDAif-39" vertex="1">
                    <mxGeometry x="712" width="102" height="40" as="geometry"/>
                </mxCell>
                <mxCell id="P4GKMGaDlnLn8EtyDAif-43" value="" style="shape=partialRectangle;html=1;whiteSpace=wrap;collapsible=0;dropTarget=0;pointerEvents=0;fillColor=none;top=0;left=0;bottom=0;right=0;points=[[0,0.5],[1,0.5]];portConstraint=eastwest;" parent="P4GKMGaDlnLn8EtyDAif-38" vertex="1">
                    <mxGeometry y="70" width="814" height="60" as="geometry"/>
                </mxCell>
                <mxCell id="P4GKMGaDlnLn8EtyDAif-44" value="1&lt;br&gt;2&lt;br&gt;3" style="shape=partialRectangle;html=1;whiteSpace=wrap;connectable=0;fillColor=none;top=0;left=0;bottom=0;right=0;overflow=hidden;" parent="P4GKMGaDlnLn8EtyDAif-43" vertex="1">
                    <mxGeometry width="102" height="60" as="geometry"/>
                </mxCell>
                <mxCell id="P4GKMGaDlnLn8EtyDAif-45" value="Jordan&lt;br&gt;Michael&lt;br&gt;Aylin" style="shape=partialRectangle;html=1;whiteSpace=wrap;connectable=0;fillColor=none;top=0;left=0;bottom=0;right=0;overflow=hidden;" parent="P4GKMGaDlnLn8EtyDAif-43" vertex="1">
                    <mxGeometry x="102" width="101" height="60" as="geometry"/>
                </mxCell>
                <mxCell id="P4GKMGaDlnLn8EtyDAif-46" value="Anhan&lt;br&gt;Kurt&lt;br&gt;Bauer" style="shape=partialRectangle;html=1;whiteSpace=wrap;connectable=0;fillColor=none;top=0;left=0;bottom=0;right=0;overflow=hidden;" parent="P4GKMGaDlnLn8EtyDAif-43" vertex="1">
                    <mxGeometry x="203" width="102" height="60" as="geometry"/>
                </mxCell>
                <mxCell id="P4GKMGaDlnLn8EtyDAif-52" value="1985-12-16&lt;br&gt;1995-05-10&lt;br&gt;1989-01-01" style="shape=partialRectangle;html=1;whiteSpace=wrap;connectable=0;fillColor=none;top=0;left=0;bottom=0;right=0;overflow=hidden;" parent="P4GKMGaDlnLn8EtyDAif-43" vertex="1">
                    <mxGeometry x="305" width="102" height="60" as="geometry"/>
                </mxCell>
                <mxCell id="P4GKMGaDlnLn8EtyDAif-54" value="2000.00&lt;br&gt;2000.00&lt;br&gt;5000.00&lt;br&gt;" style="shape=partialRectangle;html=1;whiteSpace=wrap;connectable=0;fillColor=none;top=0;left=0;bottom=0;right=0;overflow=hidden;" parent="P4GKMGaDlnLn8EtyDAif-43" vertex="1">
                    <mxGeometry x="407" width="101" height="60" as="geometry"/>
                </mxCell>
                <mxCell id="P4GKMGaDlnLn8EtyDAif-56" value="0.5&lt;br&gt;0.5&lt;br&gt;0.5" style="shape=partialRectangle;html=1;whiteSpace=wrap;connectable=0;fillColor=none;top=0;left=0;bottom=0;right=0;overflow=hidden;" parent="P4GKMGaDlnLn8EtyDAif-43" vertex="1">
                    <mxGeometry x="508" width="102" height="60" as="geometry"/>
                </mxCell>
                <mxCell id="P4GKMGaDlnLn8EtyDAif-60" value="1&lt;br&gt;2&lt;br&gt;2" style="shape=partialRectangle;html=1;whiteSpace=wrap;connectable=0;fillColor=none;top=0;left=0;bottom=0;right=0;overflow=hidden;" parent="P4GKMGaDlnLn8EtyDAif-43" vertex="1">
                    <mxGeometry x="610" width="102" height="60" as="geometry"/>
                </mxCell>
                <mxCell id="P4GKMGaDlnLn8EtyDAif-62" value="1&lt;br&gt;2&lt;br&gt;3" style="shape=partialRectangle;html=1;whiteSpace=wrap;connectable=0;fillColor=none;top=0;left=0;bottom=0;right=0;overflow=hidden;" parent="P4GKMGaDlnLn8EtyDAif-43" vertex="1">
                    <mxGeometry x="712" width="102" height="60" as="geometry"/>
                </mxCell>
                <mxCell id="P4GKMGaDlnLn8EtyDAif-63" value="Customer" style="shape=table;html=1;whiteSpace=wrap;startSize=30;container=1;collapsible=0;childLayout=tableLayout;fontStyle=1;align=center;" parent="1" vertex="1">
                    <mxGeometry x="13" y="360" width="777" height="130" as="geometry"/>
                </mxCell>
                <mxCell id="P4GKMGaDlnLn8EtyDAif-64" value="" style="shape=partialRectangle;html=1;whiteSpace=wrap;collapsible=0;dropTarget=0;pointerEvents=0;fillColor=none;top=0;left=0;bottom=0;right=0;points=[[0,0.5],[1,0.5]];portConstraint=eastwest;" parent="P4GKMGaDlnLn8EtyDAif-63" vertex="1">
                    <mxGeometry y="30" width="777" height="40" as="geometry"/>
                </mxCell>
                <mxCell id="P4GKMGaDlnLn8EtyDAif-65" value="customer_id" style="shape=partialRectangle;html=1;whiteSpace=wrap;connectable=0;fillColor=none;top=0;left=0;bottom=0;right=0;overflow=hidden;" parent="P4GKMGaDlnLn8EtyDAif-64" vertex="1">
                    <mxGeometry width="129" height="40" as="geometry"/>
                </mxCell>
                <mxCell id="P4GKMGaDlnLn8EtyDAif-66" value="first_name" style="shape=partialRectangle;html=1;whiteSpace=wrap;connectable=0;fillColor=none;top=0;left=0;bottom=0;right=0;overflow=hidden;" parent="P4GKMGaDlnLn8EtyDAif-64" vertex="1">
                    <mxGeometry x="129" width="131" height="40" as="geometry"/>
                </mxCell>
                <mxCell id="P4GKMGaDlnLn8EtyDAif-67" value="last_name" style="shape=partialRectangle;html=1;whiteSpace=wrap;connectable=0;fillColor=none;top=0;left=0;bottom=0;right=0;overflow=hidden;" parent="P4GKMGaDlnLn8EtyDAif-64" vertex="1">
                    <mxGeometry x="260" width="129" height="40" as="geometry"/>
                </mxCell>
                <mxCell id="P4GKMGaDlnLn8EtyDAif-76" value="date_of_birth" style="shape=partialRectangle;html=1;whiteSpace=wrap;connectable=0;fillColor=none;top=0;left=0;bottom=0;right=0;overflow=hidden;" parent="P4GKMGaDlnLn8EtyDAif-64" vertex="1">
                    <mxGeometry x="389" width="130" height="40" as="geometry"/>
                </mxCell>
                <mxCell id="P4GKMGaDlnLn8EtyDAif-79" value="license" style="shape=partialRectangle;html=1;whiteSpace=wrap;connectable=0;fillColor=none;top=0;left=0;bottom=0;right=0;overflow=hidden;" parent="P4GKMGaDlnLn8EtyDAif-64" vertex="1">
                    <mxGeometry x="519" width="129" height="40" as="geometry"/>
                </mxCell>
                <mxCell id="P4GKMGaDlnLn8EtyDAif-82" value="address_id" style="shape=partialRectangle;html=1;whiteSpace=wrap;connectable=0;fillColor=none;top=0;left=0;bottom=0;right=0;overflow=hidden;" parent="P4GKMGaDlnLn8EtyDAif-64" vertex="1">
                    <mxGeometry x="648" width="129" height="40" as="geometry"/>
                </mxCell>
                <mxCell id="P4GKMGaDlnLn8EtyDAif-68" value="" style="shape=partialRectangle;html=1;whiteSpace=wrap;collapsible=0;dropTarget=0;pointerEvents=0;fillColor=none;top=0;left=0;bottom=0;right=0;points=[[0,0.5],[1,0.5]];portConstraint=eastwest;" parent="P4GKMGaDlnLn8EtyDAif-63" vertex="1">
                    <mxGeometry y="70" width="777" height="60" as="geometry"/>
                </mxCell>
                <mxCell id="P4GKMGaDlnLn8EtyDAif-69" value="1&lt;br&gt;2" style="shape=partialRectangle;html=1;whiteSpace=wrap;connectable=0;fillColor=none;top=0;left=0;bottom=0;right=0;overflow=hidden;" parent="P4GKMGaDlnLn8EtyDAif-68" vertex="1">
                    <mxGeometry width="129" height="60" as="geometry"/>
                </mxCell>
                <mxCell id="P4GKMGaDlnLn8EtyDAif-70" value="Jan&lt;br&gt;Silvie" style="shape=partialRectangle;html=1;whiteSpace=wrap;connectable=0;fillColor=none;top=0;left=0;bottom=0;right=0;overflow=hidden;" parent="P4GKMGaDlnLn8EtyDAif-68" vertex="1">
                    <mxGeometry x="129" width="131" height="60" as="geometry"/>
                </mxCell>
                <mxCell id="P4GKMGaDlnLn8EtyDAif-71" value="Müller&lt;br&gt;Meyer" style="shape=partialRectangle;html=1;whiteSpace=wrap;connectable=0;fillColor=none;top=0;left=0;bottom=0;right=0;overflow=hidden;" parent="P4GKMGaDlnLn8EtyDAif-68" vertex="1">
                    <mxGeometry x="260" width="129" height="60" as="geometry"/>
                </mxCell>
                <mxCell id="P4GKMGaDlnLn8EtyDAif-77" value="1989-12-12&lt;br&gt;1990-01-12" style="shape=partialRectangle;html=1;whiteSpace=wrap;connectable=0;fillColor=none;top=0;left=0;bottom=0;right=0;overflow=hidden;" parent="P4GKMGaDlnLn8EtyDAif-68" vertex="1">
                    <mxGeometry x="389" width="130" height="60" as="geometry"/>
                </mxCell>
                <mxCell id="P4GKMGaDlnLn8EtyDAif-80" value="B&lt;br&gt;BE" style="shape=partialRectangle;html=1;whiteSpace=wrap;connectable=0;fillColor=none;top=0;left=0;bottom=0;right=0;overflow=hidden;" parent="P4GKMGaDlnLn8EtyDAif-68" vertex="1">
                    <mxGeometry x="519" width="129" height="60" as="geometry"/>
                </mxCell>
                <mxCell id="P4GKMGaDlnLn8EtyDAif-83" value="4&lt;br&gt;4" style="shape=partialRectangle;html=1;whiteSpace=wrap;connectable=0;fillColor=none;top=0;left=0;bottom=0;right=0;overflow=hidden;" parent="P4GKMGaDlnLn8EtyDAif-68" vertex="1">
                    <mxGeometry x="648" width="129" height="60" as="geometry"/>
                </mxCell>
                <mxCell id="P4GKMGaDlnLn8EtyDAif-91" value="Branch" style="shape=table;html=1;whiteSpace=wrap;startSize=30;container=1;collapsible=0;childLayout=tableLayout;fontStyle=1;align=center;" parent="1" vertex="1">
                    <mxGeometry x="10" y="520" width="507" height="110" as="geometry"/>
                </mxCell>
                <mxCell id="P4GKMGaDlnLn8EtyDAif-92" value="" style="shape=partialRectangle;html=1;whiteSpace=wrap;collapsible=0;dropTarget=0;pointerEvents=0;fillColor=none;top=0;left=0;bottom=0;right=0;points=[[0,0.5],[1,0.5]];portConstraint=eastwest;" parent="P4GKMGaDlnLn8EtyDAif-91" vertex="1">
                    <mxGeometry y="30" width="507" height="40" as="geometry"/>
                </mxCell>
                <mxCell id="P4GKMGaDlnLn8EtyDAif-93" value="branch_id" style="shape=partialRectangle;html=1;whiteSpace=wrap;connectable=0;fillColor=none;top=0;left=0;bottom=0;right=0;overflow=hidden;" parent="P4GKMGaDlnLn8EtyDAif-92" vertex="1">
                    <mxGeometry width="127" height="40" as="geometry"/>
                </mxCell>
                <mxCell id="P4GKMGaDlnLn8EtyDAif-94" value="parking_spaces" style="shape=partialRectangle;html=1;whiteSpace=wrap;connectable=0;fillColor=none;top=0;left=0;bottom=0;right=0;overflow=hidden;" parent="P4GKMGaDlnLn8EtyDAif-92" vertex="1">
                    <mxGeometry x="127" width="126" height="40" as="geometry"/>
                </mxCell>
                <mxCell id="P4GKMGaDlnLn8EtyDAif-95" value="manager_id" style="shape=partialRectangle;html=1;whiteSpace=wrap;connectable=0;fillColor=none;top=0;left=0;bottom=0;right=0;overflow=hidden;" parent="P4GKMGaDlnLn8EtyDAif-92" vertex="1">
                    <mxGeometry x="253" width="127" height="40" as="geometry"/>
                </mxCell>
                <mxCell id="P4GKMGaDlnLn8EtyDAif-110" value="address_id" style="shape=partialRectangle;html=1;whiteSpace=wrap;connectable=0;fillColor=none;top=0;left=0;bottom=0;right=0;overflow=hidden;" parent="P4GKMGaDlnLn8EtyDAif-92" vertex="1">
                    <mxGeometry x="380" width="127" height="40" as="geometry"/>
                </mxCell>
                <mxCell id="853PGbRozCumy2QCDbZ2-16" style="shape=partialRectangle;html=1;whiteSpace=wrap;collapsible=0;dropTarget=0;pointerEvents=0;fillColor=none;top=0;left=0;bottom=0;right=0;points=[[0,0.5],[1,0.5]];portConstraint=eastwest;" parent="P4GKMGaDlnLn8EtyDAif-91" vertex="1">
                    <mxGeometry y="70" width="507" height="40" as="geometry"/>
                </mxCell>
                <mxCell id="853PGbRozCumy2QCDbZ2-17" value="1&lt;br&gt;2" style="shape=partialRectangle;html=1;whiteSpace=wrap;connectable=0;fillColor=none;top=0;left=0;bottom=0;right=0;overflow=hidden;" parent="853PGbRozCumy2QCDbZ2-16" vertex="1">
                    <mxGeometry width="127" height="40" as="geometry"/>
                </mxCell>
                <mxCell id="853PGbRozCumy2QCDbZ2-18" value="10&lt;br&gt;14" style="shape=partialRectangle;html=1;whiteSpace=wrap;connectable=0;fillColor=none;top=0;left=0;bottom=0;right=0;overflow=hidden;" parent="853PGbRozCumy2QCDbZ2-16" vertex="1">
                    <mxGeometry x="127" width="126" height="40" as="geometry"/>
                </mxCell>
                <mxCell id="853PGbRozCumy2QCDbZ2-19" value="1&lt;br&gt;2" style="shape=partialRectangle;html=1;whiteSpace=wrap;connectable=0;fillColor=none;top=0;left=0;bottom=0;right=0;overflow=hidden;" parent="853PGbRozCumy2QCDbZ2-16" vertex="1">
                    <mxGeometry x="253" width="127" height="40" as="geometry"/>
                </mxCell>
                <mxCell id="853PGbRozCumy2QCDbZ2-20" value="1&lt;br&gt;2" style="shape=partialRectangle;html=1;whiteSpace=wrap;connectable=0;fillColor=none;top=0;left=0;bottom=0;right=0;overflow=hidden;" parent="853PGbRozCumy2QCDbZ2-16" vertex="1">
                    <mxGeometry x="380" width="127" height="40" as="geometry"/>
                </mxCell>
                <mxCell id="P4GKMGaDlnLn8EtyDAif-113" value="Price" style="shape=table;html=1;whiteSpace=wrap;startSize=30;container=1;collapsible=0;childLayout=tableLayout;fontStyle=1;align=center;" parent="1" vertex="1">
                    <mxGeometry x="13" y="650" width="610" height="130" as="geometry"/>
                </mxCell>
                <mxCell id="P4GKMGaDlnLn8EtyDAif-114" value="" style="shape=partialRectangle;html=1;whiteSpace=wrap;collapsible=0;dropTarget=0;pointerEvents=0;fillColor=none;top=0;left=0;bottom=0;right=0;points=[[0,0.5],[1,0.5]];portConstraint=eastwest;" parent="P4GKMGaDlnLn8EtyDAif-113" vertex="1">
                    <mxGeometry y="30" width="610" height="40" as="geometry"/>
                </mxCell>
                <mxCell id="P4GKMGaDlnLn8EtyDAif-115" value="price_id" style="shape=partialRectangle;html=1;whiteSpace=wrap;connectable=0;fillColor=none;top=0;left=0;bottom=0;right=0;overflow=hidden;" parent="P4GKMGaDlnLn8EtyDAif-114" vertex="1">
                    <mxGeometry width="122" height="40" as="geometry"/>
                </mxCell>
                <mxCell id="P4GKMGaDlnLn8EtyDAif-116" value="price_class" style="shape=partialRectangle;html=1;whiteSpace=wrap;connectable=0;fillColor=none;top=0;left=0;bottom=0;right=0;overflow=hidden;" parent="P4GKMGaDlnLn8EtyDAif-114" vertex="1">
                    <mxGeometry x="122" width="122" height="40" as="geometry"/>
                </mxCell>
                <mxCell id="P4GKMGaDlnLn8EtyDAif-126" value="price_per_day" style="shape=partialRectangle;html=1;whiteSpace=wrap;connectable=0;fillColor=none;top=0;left=0;bottom=0;right=0;overflow=hidden;" parent="P4GKMGaDlnLn8EtyDAif-114" vertex="1">
                    <mxGeometry x="244" width="122" height="40" as="geometry"/>
                </mxCell>
                <mxCell id="P4GKMGaDlnLn8EtyDAif-128" value="price_per_kilometer" style="shape=partialRectangle;html=1;whiteSpace=wrap;connectable=0;fillColor=none;top=0;left=0;bottom=0;right=0;overflow=hidden;" parent="P4GKMGaDlnLn8EtyDAif-114" vertex="1">
                    <mxGeometry x="366" width="122" height="40" as="geometry"/>
                </mxCell>
                <mxCell id="P4GKMGaDlnLn8EtyDAif-130" value="security_deposit" style="shape=partialRectangle;html=1;whiteSpace=wrap;connectable=0;fillColor=none;top=0;left=0;bottom=0;right=0;overflow=hidden;" parent="P4GKMGaDlnLn8EtyDAif-114" vertex="1">
                    <mxGeometry x="488" width="122" height="40" as="geometry"/>
                </mxCell>
                <mxCell id="P4GKMGaDlnLn8EtyDAif-118" value="" style="shape=partialRectangle;html=1;whiteSpace=wrap;collapsible=0;dropTarget=0;pointerEvents=0;fillColor=none;top=0;left=0;bottom=0;right=0;points=[[0,0.5],[1,0.5]];portConstraint=eastwest;" parent="P4GKMGaDlnLn8EtyDAif-113" vertex="1">
                    <mxGeometry y="70" width="610" height="60" as="geometry"/>
                </mxCell>
                <mxCell id="P4GKMGaDlnLn8EtyDAif-119" value="1&lt;br&gt;2&lt;br&gt;3" style="shape=partialRectangle;html=1;whiteSpace=wrap;connectable=0;fillColor=none;top=0;left=0;bottom=0;right=0;overflow=hidden;" parent="P4GKMGaDlnLn8EtyDAif-118" vertex="1">
                    <mxGeometry width="122" height="60" as="geometry"/>
                </mxCell>
                <mxCell id="P4GKMGaDlnLn8EtyDAif-120" value="Luxury Line&lt;br&gt;Business Line&lt;br&gt;Economic Line" style="shape=partialRectangle;html=1;whiteSpace=wrap;connectable=0;fillColor=none;top=0;left=0;bottom=0;right=0;overflow=hidden;" parent="P4GKMGaDlnLn8EtyDAif-118" vertex="1">
                    <mxGeometry x="122" width="122" height="60" as="geometry"/>
                </mxCell>
                <mxCell id="P4GKMGaDlnLn8EtyDAif-127" value="1000.00&lt;br&gt;250.00&lt;br&gt;99.00" style="shape=partialRectangle;html=1;whiteSpace=wrap;connectable=0;fillColor=none;top=0;left=0;bottom=0;right=0;overflow=hidden;" parent="P4GKMGaDlnLn8EtyDAif-118" vertex="1">
                    <mxGeometry x="244" width="122" height="60" as="geometry"/>
                </mxCell>
                <mxCell id="P4GKMGaDlnLn8EtyDAif-129" value="1.20&lt;br&gt;0.3&lt;br&gt;0.3" style="shape=partialRectangle;html=1;whiteSpace=wrap;connectable=0;fillColor=none;top=0;left=0;bottom=0;right=0;overflow=hidden;" parent="P4GKMGaDlnLn8EtyDAif-118" vertex="1">
                    <mxGeometry x="366" width="122" height="60" as="geometry"/>
                </mxCell>
                <mxCell id="P4GKMGaDlnLn8EtyDAif-131" value="10000.00&lt;br&gt;1000.00&lt;br&gt;0.00" style="shape=partialRectangle;html=1;whiteSpace=wrap;connectable=0;fillColor=none;top=0;left=0;bottom=0;right=0;overflow=hidden;" parent="P4GKMGaDlnLn8EtyDAif-118" vertex="1">
                    <mxGeometry x="488" width="122" height="60" as="geometry"/>
                </mxCell>
                <mxCell id="P4GKMGaDlnLn8EtyDAif-132" value="Car" style="shape=table;html=1;whiteSpace=wrap;startSize=30;container=1;collapsible=0;childLayout=tableLayout;fontStyle=1;align=center;" parent="1" vertex="1">
                    <mxGeometry x="13" y="800" width="840" height="140" as="geometry"/>
                </mxCell>
                <mxCell id="P4GKMGaDlnLn8EtyDAif-133" value="" style="shape=partialRectangle;html=1;whiteSpace=wrap;collapsible=0;dropTarget=0;pointerEvents=0;fillColor=none;top=0;left=0;bottom=0;right=0;points=[[0,0.5],[1,0.5]];portConstraint=eastwest;" parent="P4GKMGaDlnLn8EtyDAif-132" vertex="1">
                    <mxGeometry y="30" width="840" height="40" as="geometry"/>
                </mxCell>
                <mxCell id="P4GKMGaDlnLn8EtyDAif-134" value="car_id" style="shape=partialRectangle;html=1;whiteSpace=wrap;connectable=0;fillColor=none;top=0;left=0;bottom=0;right=0;overflow=hidden;" parent="P4GKMGaDlnLn8EtyDAif-133" vertex="1">
                    <mxGeometry width="120" height="40" as="geometry"/>
                </mxCell>
                <mxCell id="P4GKMGaDlnLn8EtyDAif-135" value="brand" style="shape=partialRectangle;html=1;whiteSpace=wrap;connectable=0;fillColor=none;top=0;left=0;bottom=0;right=0;overflow=hidden;" parent="P4GKMGaDlnLn8EtyDAif-133" vertex="1">
                    <mxGeometry x="120" width="120" height="40" as="geometry"/>
                </mxCell>
                <mxCell id="P4GKMGaDlnLn8EtyDAif-136" value="mileage" style="shape=partialRectangle;html=1;whiteSpace=wrap;connectable=0;fillColor=none;top=0;left=0;bottom=0;right=0;overflow=hidden;" parent="P4GKMGaDlnLn8EtyDAif-133" vertex="1">
                    <mxGeometry x="240" width="120" height="40" as="geometry"/>
                </mxCell>
                <mxCell id="P4GKMGaDlnLn8EtyDAif-145" value="date_bought" style="shape=partialRectangle;html=1;whiteSpace=wrap;connectable=0;fillColor=none;top=0;left=0;bottom=0;right=0;overflow=hidden;" parent="P4GKMGaDlnLn8EtyDAif-133" vertex="1">
                    <mxGeometry x="360" width="120" height="40" as="geometry"/>
                </mxCell>
                <mxCell id="P4GKMGaDlnLn8EtyDAif-147" value="is_available" style="shape=partialRectangle;html=1;whiteSpace=wrap;connectable=0;fillColor=none;top=0;left=0;bottom=0;right=0;overflow=hidden;" parent="P4GKMGaDlnLn8EtyDAif-133" vertex="1">
                    <mxGeometry x="480" width="120" height="40" as="geometry"/>
                </mxCell>
                <mxCell id="P4GKMGaDlnLn8EtyDAif-151" value="price_id" style="shape=partialRectangle;html=1;whiteSpace=wrap;connectable=0;fillColor=none;top=0;left=0;bottom=0;right=0;overflow=hidden;" parent="P4GKMGaDlnLn8EtyDAif-133" vertex="1">
                    <mxGeometry x="600" width="120" height="40" as="geometry"/>
                </mxCell>
                <mxCell id="P4GKMGaDlnLn8EtyDAif-153" value="branch_id" style="shape=partialRectangle;html=1;whiteSpace=wrap;connectable=0;fillColor=none;top=0;left=0;bottom=0;right=0;overflow=hidden;" parent="P4GKMGaDlnLn8EtyDAif-133" vertex="1">
                    <mxGeometry x="720" width="120" height="40" as="geometry"/>
                </mxCell>
                <mxCell id="P4GKMGaDlnLn8EtyDAif-137" value="" style="shape=partialRectangle;html=1;whiteSpace=wrap;collapsible=0;dropTarget=0;pointerEvents=0;fillColor=none;top=0;left=0;bottom=0;right=0;points=[[0,0.5],[1,0.5]];portConstraint=eastwest;" parent="P4GKMGaDlnLn8EtyDAif-132" vertex="1">
                    <mxGeometry y="70" width="840" height="70" as="geometry"/>
                </mxCell>
                <mxCell id="P4GKMGaDlnLn8EtyDAif-138" value="1&lt;br&gt;2&lt;br&gt;3" style="shape=partialRectangle;html=1;whiteSpace=wrap;connectable=0;fillColor=none;top=0;left=0;bottom=0;right=0;overflow=hidden;" parent="P4GKMGaDlnLn8EtyDAif-137" vertex="1">
                    <mxGeometry width="120" height="70" as="geometry"/>
                </mxCell>
                <mxCell id="P4GKMGaDlnLn8EtyDAif-139" value="&lt;span&gt;Mercedes&lt;/span&gt;&lt;br&gt;&lt;span&gt;Opel&lt;/span&gt;&lt;br&gt;&lt;span&gt;Audi&lt;/span&gt;" style="shape=partialRectangle;html=1;whiteSpace=wrap;connectable=0;fillColor=none;top=0;left=0;bottom=0;right=0;overflow=hidden;" parent="P4GKMGaDlnLn8EtyDAif-137" vertex="1">
                    <mxGeometry x="120" width="120" height="70" as="geometry"/>
                </mxCell>
                <mxCell id="P4GKMGaDlnLn8EtyDAif-140" value="200000&lt;br&gt;150000&lt;br&gt;150000" style="shape=partialRectangle;html=1;whiteSpace=wrap;connectable=0;fillColor=none;top=0;left=0;bottom=0;right=0;overflow=hidden;" parent="P4GKMGaDlnLn8EtyDAif-137" vertex="1">
                    <mxGeometry x="240" width="120" height="70" as="geometry"/>
                </mxCell>
                <mxCell id="P4GKMGaDlnLn8EtyDAif-146" value="2002-01-01&lt;br&gt;2012-01-01&lt;br&gt;2012-01-01" style="shape=partialRectangle;html=1;whiteSpace=wrap;connectable=0;fillColor=none;top=0;left=0;bottom=0;right=0;overflow=hidden;" parent="P4GKMGaDlnLn8EtyDAif-137" vertex="1">
                    <mxGeometry x="360" width="120" height="70" as="geometry"/>
                </mxCell>
                <mxCell id="P4GKMGaDlnLn8EtyDAif-148" value="false&lt;br&gt;false&lt;br&gt;true" style="shape=partialRectangle;html=1;whiteSpace=wrap;connectable=0;fillColor=none;top=0;left=0;bottom=0;right=0;overflow=hidden;" parent="P4GKMGaDlnLn8EtyDAif-137" vertex="1">
                    <mxGeometry x="480" width="120" height="70" as="geometry"/>
                </mxCell>
                <mxCell id="P4GKMGaDlnLn8EtyDAif-152" value="1&lt;br&gt;2&lt;br&gt;3" style="shape=partialRectangle;html=1;whiteSpace=wrap;connectable=0;fillColor=none;top=0;left=0;bottom=0;right=0;overflow=hidden;" parent="P4GKMGaDlnLn8EtyDAif-137" vertex="1">
                    <mxGeometry x="600" width="120" height="70" as="geometry"/>
                </mxCell>
                <mxCell id="P4GKMGaDlnLn8EtyDAif-154" value="1&lt;br&gt;1&lt;br&gt;2" style="shape=partialRectangle;html=1;whiteSpace=wrap;connectable=0;fillColor=none;top=0;left=0;bottom=0;right=0;overflow=hidden;" parent="P4GKMGaDlnLn8EtyDAif-137" vertex="1">
                    <mxGeometry x="720" width="120" height="70" as="geometry"/>
                </mxCell>
                <mxCell id="P4GKMGaDlnLn8EtyDAif-155" value="Rent" style="shape=table;html=1;whiteSpace=wrap;startSize=30;container=1;collapsible=0;childLayout=tableLayout;fontStyle=1;align=center;" parent="1" vertex="1">
                    <mxGeometry x="10" y="960" width="935" height="130" as="geometry"/>
                </mxCell>
                <mxCell id="P4GKMGaDlnLn8EtyDAif-156" value="" style="shape=partialRectangle;html=1;whiteSpace=wrap;collapsible=0;dropTarget=0;pointerEvents=0;fillColor=none;top=0;left=0;bottom=0;right=0;points=[[0,0.5],[1,0.5]];portConstraint=eastwest;" parent="P4GKMGaDlnLn8EtyDAif-155" vertex="1">
                    <mxGeometry y="30" width="935" height="40" as="geometry"/>
                </mxCell>
                <mxCell id="P4GKMGaDlnLn8EtyDAif-157" value="rent_id" style="shape=partialRectangle;html=1;whiteSpace=wrap;connectable=0;fillColor=none;top=0;left=0;bottom=0;right=0;overflow=hidden;" parent="P4GKMGaDlnLn8EtyDAif-156" vertex="1">
                    <mxGeometry width="117" height="40" as="geometry"/>
                </mxCell>
                <mxCell id="P4GKMGaDlnLn8EtyDAif-158" value="duration" style="shape=partialRectangle;html=1;whiteSpace=wrap;connectable=0;fillColor=none;top=0;left=0;bottom=0;right=0;overflow=hidden;" parent="P4GKMGaDlnLn8EtyDAif-156" vertex="1">
                    <mxGeometry x="117" width="116" height="40" as="geometry"/>
                </mxCell>
                <mxCell id="P4GKMGaDlnLn8EtyDAif-159" value="free_kilometers" style="shape=partialRectangle;html=1;whiteSpace=wrap;connectable=0;fillColor=none;top=0;left=0;bottom=0;right=0;overflow=hidden;" parent="P4GKMGaDlnLn8EtyDAif-156" vertex="1">
                    <mxGeometry x="233" width="117" height="40" as="geometry"/>
                </mxCell>
                <mxCell id="P4GKMGaDlnLn8EtyDAif-168" value="is_returned" style="shape=partialRectangle;html=1;whiteSpace=wrap;connectable=0;fillColor=none;top=0;left=0;bottom=0;right=0;overflow=hidden;" parent="P4GKMGaDlnLn8EtyDAif-156" vertex="1">
                    <mxGeometry x="350" width="117" height="40" as="geometry"/>
                </mxCell>
                <mxCell id="P4GKMGaDlnLn8EtyDAif-170" value="date_rented" style="shape=partialRectangle;html=1;whiteSpace=wrap;connectable=0;fillColor=none;top=0;left=0;bottom=0;right=0;overflow=hidden;" parent="P4GKMGaDlnLn8EtyDAif-156" vertex="1">
                    <mxGeometry x="467" width="117" height="40" as="geometry"/>
                </mxCell>
                <mxCell id="P4GKMGaDlnLn8EtyDAif-172" value="car_id" style="shape=partialRectangle;html=1;whiteSpace=wrap;connectable=0;fillColor=none;top=0;left=0;bottom=0;right=0;overflow=hidden;" parent="P4GKMGaDlnLn8EtyDAif-156" vertex="1">
                    <mxGeometry x="584" width="117" height="40" as="geometry"/>
                </mxCell>
                <mxCell id="P4GKMGaDlnLn8EtyDAif-176" value="customer_id" style="shape=partialRectangle;html=1;whiteSpace=wrap;connectable=0;fillColor=none;top=0;left=0;bottom=0;right=0;overflow=hidden;" parent="P4GKMGaDlnLn8EtyDAif-156" vertex="1">
                    <mxGeometry x="701" width="117" height="40" as="geometry"/>
                </mxCell>
                <mxCell id="P4GKMGaDlnLn8EtyDAif-174" value="employee_id" style="shape=partialRectangle;html=1;whiteSpace=wrap;connectable=0;fillColor=none;top=0;left=0;bottom=0;right=0;overflow=hidden;" parent="P4GKMGaDlnLn8EtyDAif-156" vertex="1">
                    <mxGeometry x="818" width="117" height="40" as="geometry"/>
                </mxCell>
                <mxCell id="P4GKMGaDlnLn8EtyDAif-160" value="" style="shape=partialRectangle;html=1;whiteSpace=wrap;collapsible=0;dropTarget=0;pointerEvents=0;fillColor=none;top=0;left=0;bottom=0;right=0;points=[[0,0.5],[1,0.5]];portConstraint=eastwest;" parent="P4GKMGaDlnLn8EtyDAif-155" vertex="1">
                    <mxGeometry y="70" width="935" height="60" as="geometry"/>
                </mxCell>
                <mxCell id="P4GKMGaDlnLn8EtyDAif-161" value="1&lt;br&gt;2" style="shape=partialRectangle;html=1;whiteSpace=wrap;connectable=0;fillColor=none;top=0;left=0;bottom=0;right=0;overflow=hidden;" parent="P4GKMGaDlnLn8EtyDAif-160" vertex="1">
                    <mxGeometry width="117" height="60" as="geometry"/>
                </mxCell>
                <mxCell id="P4GKMGaDlnLn8EtyDAif-162" value="5&lt;br&gt;1" style="shape=partialRectangle;html=1;whiteSpace=wrap;connectable=0;fillColor=none;top=0;left=0;bottom=0;right=0;overflow=hidden;" parent="P4GKMGaDlnLn8EtyDAif-160" vertex="1">
                    <mxGeometry x="117" width="116" height="60" as="geometry"/>
                </mxCell>
                <mxCell id="P4GKMGaDlnLn8EtyDAif-163" value="100&lt;br&gt;100" style="shape=partialRectangle;html=1;whiteSpace=wrap;connectable=0;fillColor=none;top=0;left=0;bottom=0;right=0;overflow=hidden;" parent="P4GKMGaDlnLn8EtyDAif-160" vertex="1">
                    <mxGeometry x="233" width="117" height="60" as="geometry"/>
                </mxCell>
                <mxCell id="P4GKMGaDlnLn8EtyDAif-169" value="false&lt;br&gt;false" style="shape=partialRectangle;html=1;whiteSpace=wrap;connectable=0;fillColor=none;top=0;left=0;bottom=0;right=0;overflow=hidden;" parent="P4GKMGaDlnLn8EtyDAif-160" vertex="1">
                    <mxGeometry x="350" width="117" height="60" as="geometry"/>
                </mxCell>
                <mxCell id="P4GKMGaDlnLn8EtyDAif-171" value="2021-05-12&lt;br&gt;2021-05-12" style="shape=partialRectangle;html=1;whiteSpace=wrap;connectable=0;fillColor=none;top=0;left=0;bottom=0;right=0;overflow=hidden;" parent="P4GKMGaDlnLn8EtyDAif-160" vertex="1">
                    <mxGeometry x="467" width="117" height="60" as="geometry"/>
                </mxCell>
                <mxCell id="P4GKMGaDlnLn8EtyDAif-173" value="1&lt;br&gt;2" style="shape=partialRectangle;html=1;whiteSpace=wrap;connectable=0;fillColor=none;top=0;left=0;bottom=0;right=0;overflow=hidden;" parent="P4GKMGaDlnLn8EtyDAif-160" vertex="1">
                    <mxGeometry x="584" width="117" height="60" as="geometry"/>
                </mxCell>
                <mxCell id="P4GKMGaDlnLn8EtyDAif-177" value="1&lt;br&gt;2" style="shape=partialRectangle;html=1;whiteSpace=wrap;connectable=0;fillColor=none;top=0;left=0;bottom=0;right=0;overflow=hidden;" parent="P4GKMGaDlnLn8EtyDAif-160" vertex="1">
                    <mxGeometry x="701" width="117" height="60" as="geometry"/>
                </mxCell>
                <mxCell id="P4GKMGaDlnLn8EtyDAif-175" value="1&lt;br&gt;1" style="shape=partialRectangle;html=1;whiteSpace=wrap;connectable=0;fillColor=none;top=0;left=0;bottom=0;right=0;overflow=hidden;" parent="P4GKMGaDlnLn8EtyDAif-160" vertex="1">
                    <mxGeometry x="818" width="117" height="60" as="geometry"/>
                </mxCell>
                <mxCell id="P4GKMGaDlnLn8EtyDAif-178" value="Payment" style="shape=table;html=1;whiteSpace=wrap;startSize=30;container=1;collapsible=0;childLayout=tableLayout;fontStyle=1;align=center;" parent="1" vertex="1">
                    <mxGeometry x="13" y="1140" width="410" height="120" as="geometry"/>
                </mxCell>
                <mxCell id="P4GKMGaDlnLn8EtyDAif-179" value="" style="shape=partialRectangle;html=1;whiteSpace=wrap;collapsible=0;dropTarget=0;pointerEvents=0;fillColor=none;top=0;left=0;bottom=0;right=0;points=[[0,0.5],[1,0.5]];portConstraint=eastwest;" parent="P4GKMGaDlnLn8EtyDAif-178" vertex="1">
                    <mxGeometry y="30" width="410" height="40" as="geometry"/>
                </mxCell>
                <mxCell id="P4GKMGaDlnLn8EtyDAif-180" value="payment_amount" style="shape=partialRectangle;html=1;whiteSpace=wrap;connectable=0;fillColor=none;top=0;left=0;bottom=0;right=0;overflow=hidden;" parent="P4GKMGaDlnLn8EtyDAif-179" vertex="1">
                    <mxGeometry width="137" height="40" as="geometry"/>
                </mxCell>
                <mxCell id="P4GKMGaDlnLn8EtyDAif-181" value="payment_date" style="shape=partialRectangle;html=1;whiteSpace=wrap;connectable=0;fillColor=none;top=0;left=0;bottom=0;right=0;overflow=hidden;" parent="P4GKMGaDlnLn8EtyDAif-179" vertex="1">
                    <mxGeometry x="137" width="136" height="40" as="geometry"/>
                </mxCell>
                <mxCell id="P4GKMGaDlnLn8EtyDAif-182" value="rent_id" style="shape=partialRectangle;html=1;whiteSpace=wrap;connectable=0;fillColor=none;top=0;left=0;bottom=0;right=0;overflow=hidden;" parent="P4GKMGaDlnLn8EtyDAif-179" vertex="1">
                    <mxGeometry x="273" width="137" height="40" as="geometry"/>
                </mxCell>
                <mxCell id="P4GKMGaDlnLn8EtyDAif-183" value="" style="shape=partialRectangle;html=1;whiteSpace=wrap;collapsible=0;dropTarget=0;pointerEvents=0;fillColor=none;top=0;left=0;bottom=0;right=0;points=[[0,0.5],[1,0.5]];portConstraint=eastwest;" parent="P4GKMGaDlnLn8EtyDAif-178" vertex="1">
                    <mxGeometry y="70" width="410" height="50" as="geometry"/>
                </mxCell>
                <mxCell id="P4GKMGaDlnLn8EtyDAif-184" value="1250.00&lt;br&gt;99.00" style="shape=partialRectangle;html=1;whiteSpace=wrap;connectable=0;fillColor=none;top=0;left=0;bottom=0;right=0;overflow=hidden;" parent="P4GKMGaDlnLn8EtyDAif-183" vertex="1">
                    <mxGeometry width="137" height="50" as="geometry"/>
                </mxCell>
                <mxCell id="P4GKMGaDlnLn8EtyDAif-185" value="2021-05-12&lt;br&gt;2021-05-12" style="shape=partialRectangle;html=1;whiteSpace=wrap;connectable=0;fillColor=none;top=0;left=0;bottom=0;right=0;overflow=hidden;" parent="P4GKMGaDlnLn8EtyDAif-183" vertex="1">
                    <mxGeometry x="137" width="136" height="50" as="geometry"/>
                </mxCell>
                <mxCell id="P4GKMGaDlnLn8EtyDAif-186" value="1&lt;br&gt;2" style="shape=partialRectangle;html=1;whiteSpace=wrap;connectable=0;fillColor=none;top=0;left=0;bottom=0;right=0;overflow=hidden;" parent="P4GKMGaDlnLn8EtyDAif-183" vertex="1">
                    <mxGeometry x="273" width="137" height="50" as="geometry"/>
                </mxCell>
                <mxCell id="853PGbRozCumy2QCDbZ2-1" value="Maintains" style="shape=table;html=1;whiteSpace=wrap;startSize=30;container=1;collapsible=0;childLayout=tableLayout;fontStyle=1;align=center;" parent="1" vertex="1">
                    <mxGeometry x="13" y="1290" width="876" height="130" as="geometry"/>
                </mxCell>
                <mxCell id="853PGbRozCumy2QCDbZ2-2" value="" style="shape=partialRectangle;html=1;whiteSpace=wrap;collapsible=0;dropTarget=0;pointerEvents=0;fillColor=none;top=0;left=0;bottom=0;right=0;points=[[0,0.5],[1,0.5]];portConstraint=eastwest;" parent="853PGbRozCumy2QCDbZ2-1" vertex="1">
                    <mxGeometry y="30" width="876" height="40" as="geometry"/>
                </mxCell>
                <mxCell id="853PGbRozCumy2QCDbZ2-3" value="date_maintained" style="shape=partialRectangle;html=1;whiteSpace=wrap;connectable=0;fillColor=none;top=0;left=0;bottom=0;right=0;overflow=hidden;" parent="853PGbRozCumy2QCDbZ2-2" vertex="1">
                    <mxGeometry width="219" height="40" as="geometry"/>
                </mxCell>
                <mxCell id="853PGbRozCumy2QCDbZ2-4" value="comment" style="shape=partialRectangle;html=1;whiteSpace=wrap;connectable=0;fillColor=none;top=0;left=0;bottom=0;right=0;overflow=hidden;" parent="853PGbRozCumy2QCDbZ2-2" vertex="1">
                    <mxGeometry x="219" width="219" height="40" as="geometry"/>
                </mxCell>
                <mxCell id="853PGbRozCumy2QCDbZ2-5" value="car_id" style="shape=partialRectangle;html=1;whiteSpace=wrap;connectable=0;fillColor=none;top=0;left=0;bottom=0;right=0;overflow=hidden;" parent="853PGbRozCumy2QCDbZ2-2" vertex="1">
                    <mxGeometry x="438" width="219" height="40" as="geometry"/>
                </mxCell>
                <mxCell id="853PGbRozCumy2QCDbZ2-14" value="employee_id" style="shape=partialRectangle;html=1;whiteSpace=wrap;connectable=0;fillColor=none;top=0;left=0;bottom=0;right=0;overflow=hidden;" parent="853PGbRozCumy2QCDbZ2-2" vertex="1">
                    <mxGeometry x="657" width="219" height="40" as="geometry"/>
                </mxCell>
                <mxCell id="853PGbRozCumy2QCDbZ2-6" value="" style="shape=partialRectangle;html=1;whiteSpace=wrap;collapsible=0;dropTarget=0;pointerEvents=0;fillColor=none;top=0;left=0;bottom=0;right=0;points=[[0,0.5],[1,0.5]];portConstraint=eastwest;" parent="853PGbRozCumy2QCDbZ2-1" vertex="1">
                    <mxGeometry y="70" width="876" height="60" as="geometry"/>
                </mxCell>
                <mxCell id="853PGbRozCumy2QCDbZ2-7" value="2021-05-12&lt;br&gt;2021-05-12&lt;br&gt;2021-05-21" style="shape=partialRectangle;html=1;whiteSpace=wrap;connectable=0;fillColor=none;top=0;left=0;bottom=0;right=0;overflow=hidden;" parent="853PGbRozCumy2QCDbZ2-6" vertex="1">
                    <mxGeometry width="219" height="60" as="geometry"/>
                </mxCell>
                <mxCell id="853PGbRozCumy2QCDbZ2-8" value="everything is clean&amp;nbsp;&lt;br&gt;bumper got dented&lt;br&gt;-" style="shape=partialRectangle;html=1;whiteSpace=wrap;connectable=0;fillColor=none;top=0;left=0;bottom=0;right=0;overflow=hidden;" parent="853PGbRozCumy2QCDbZ2-6" vertex="1">
                    <mxGeometry x="219" width="219" height="60" as="geometry"/>
                </mxCell>
                <mxCell id="853PGbRozCumy2QCDbZ2-9" value="2&lt;br&gt;1&lt;br&gt;1" style="shape=partialRectangle;html=1;whiteSpace=wrap;connectable=0;fillColor=none;top=0;left=0;bottom=0;right=0;overflow=hidden;" parent="853PGbRozCumy2QCDbZ2-6" vertex="1">
                    <mxGeometry x="438" width="219" height="60" as="geometry"/>
                </mxCell>
                <mxCell id="853PGbRozCumy2QCDbZ2-15" value="1&lt;br&gt;1&lt;br&gt;2" style="shape=partialRectangle;html=1;whiteSpace=wrap;connectable=0;fillColor=none;top=0;left=0;bottom=0;right=0;overflow=hidden;" parent="853PGbRozCumy2QCDbZ2-6" vertex="1">
                    <mxGeometry x="657" width="219" height="60" as="geometry"/>
                </mxCell>
            </root>
        </mxGraphModel>
    </diagram>
    <diagram id="cIGHSVpvP4C8sw7O7SJQ" name="Page-2">
        <mxGraphModel dx="631" dy="580" grid="1" gridSize="10" guides="1" tooltips="1" connect="1" arrows="1" fold="1" page="1" pageScale="1" pageWidth="827" pageHeight="1169" math="0" shadow="0">
            <root>
                <mxCell id="nvyokSAp8DDVwt06CTMN-0"/>
                <mxCell id="nvyokSAp8DDVwt06CTMN-1" parent="nvyokSAp8DDVwt06CTMN-0"/>
            </root>
        </mxGraphModel>
    </diagram>
</mxfile>